<mxfile host="65bd71144e">
    <diagram id="nBl_RBMg3z1n7ommSpyX" name="第 1 页">
        <mxGraphModel dx="608" dy="488" grid="1" gridSize="10" guides="1" tooltips="1" connect="1" arrows="1" fold="1" page="1" pageScale="1" pageWidth="1654" pageHeight="2336" math="0" shadow="0">
            <root>
                <mxCell id="0"/>
                <mxCell id="1" parent="0"/>
                <mxCell id="2" value="IKUN&lt;br&gt;" style="shape=umlActor;verticalLabelPosition=bottom;verticalAlign=top;html=1;outlineConnect=0;" parent="1" vertex="1">
                    <mxGeometry x="206" y="310" width="90" height="180" as="geometry"/>
                </mxCell>
                <mxCell id="6" value="" style="edgeStyle=none;html=1;" parent="1" source="3" target="5" edge="1">
                    <mxGeometry relative="1" as="geometry"/>
                </mxCell>
                <mxCell id="3" value="" style="shape=or;whiteSpace=wrap;html=1;rotation=40;" parent="1" vertex="1">
                    <mxGeometry x="226" y="300" width="25.26" height="54.45" as="geometry"/>
                </mxCell>
                <mxCell id="5" value="" style="shape=or;whiteSpace=wrap;html=1;rotation=140;" parent="1" vertex="1">
                    <mxGeometry x="251.26" y="300" width="25.26" height="54.45" as="geometry"/>
                </mxCell>
                <mxCell id="13" value="" style="shape=process;whiteSpace=wrap;html=1;backgroundOutline=1;size=0.23529411764705882;" parent="1" vertex="1">
                    <mxGeometry x="236" y="360" width="30" height="60" as="geometry"/>
                </mxCell>
                <mxCell id="14" value="" style="ellipse;whiteSpace=wrap;html=1;aspect=fixed;" parent="1" vertex="1">
                    <mxGeometry x="156" y="314.45" width="40" height="40" as="geometry"/>
                </mxCell>
                <mxCell id="15" value="" style="endArrow=none;html=1;exitX=0;exitY=0.3333333333333333;exitDx=0;exitDy=0;exitPerimeter=0;entryX=1;entryY=1;entryDx=0;entryDy=0;" parent="1" source="2" target="14" edge="1">
                    <mxGeometry width="50" height="50" relative="1" as="geometry">
                        <mxPoint x="266" y="400" as="sourcePoint"/>
                        <mxPoint x="176" y="370" as="targetPoint"/>
                    </mxGeometry>
                </mxCell>
                <mxCell id="16" value="" style="endArrow=none;html=1;exitX=1;exitY=0.3333333333333333;exitDx=0;exitDy=0;exitPerimeter=0;" parent="1" source="2" edge="1">
                    <mxGeometry width="50" height="50" relative="1" as="geometry">
                        <mxPoint x="216" y="379.9999999999999" as="sourcePoint"/>
                        <mxPoint x="306" y="330" as="targetPoint"/>
                    </mxGeometry>
                </mxCell>
                <mxCell id="17" value="" style="rounded=0;whiteSpace=wrap;html=1;" parent="1" vertex="1">
                    <mxGeometry x="530" y="620" width="120" height="90" as="geometry"/>
                </mxCell>
                <mxCell id="19" value="" style="curved=1;endArrow=classic;html=1;entryX=1;entryY=0;entryDx=0;entryDy=0;" parent="1" target="17" edge="1">
                    <mxGeometry width="50" height="50" relative="1" as="geometry">
                        <mxPoint x="750" y="620" as="sourcePoint"/>
                        <mxPoint x="690" y="670" as="targetPoint"/>
                        <Array as="points">
                            <mxPoint x="760" y="600"/>
                            <mxPoint x="670" y="590"/>
                        </Array>
                    </mxGeometry>
                </mxCell>
                <mxCell id="20" value="" style="rounded=0;whiteSpace=wrap;html=1;" parent="1" vertex="1">
                    <mxGeometry x="740" y="620" width="67" height="30" as="geometry"/>
                </mxCell>
                <mxCell id="34" value="" style="rounded=1;whiteSpace=wrap;html=1;strokeWidth=2;fillColor=#f5f5f5;fontColor=#333333;strokeColor=#666666;" vertex="1" parent="1">
                    <mxGeometry x="80" y="760" width="80" height="40" as="geometry"/>
                </mxCell>
                <mxCell id="35" value="" style="rounded=1;whiteSpace=wrap;html=1;strokeWidth=2;fillColor=#f5f5f5;fontColor=#333333;strokeColor=#666666;" vertex="1" parent="1">
                    <mxGeometry x="80" y="800" width="80" height="40" as="geometry"/>
                </mxCell>
                <mxCell id="36" value="" style="rounded=1;whiteSpace=wrap;html=1;strokeWidth=2;fillColor=#f5f5f5;fontColor=#333333;strokeColor=#666666;" vertex="1" parent="1">
                    <mxGeometry x="80" y="840" width="80" height="40" as="geometry"/>
                </mxCell>
                <mxCell id="37" value="" style="rounded=1;whiteSpace=wrap;html=1;fillColor=#f5f5f5;fontColor=#333333;strokeColor=#666666;" vertex="1" parent="1">
                    <mxGeometry x="80" y="880" width="80" height="40" as="geometry"/>
                </mxCell>
                <mxCell id="38" value="" style="rounded=1;whiteSpace=wrap;html=1;strokeWidth=2;fillColor=#f5f5f5;fontColor=#333333;strokeColor=#666666;" vertex="1" parent="1">
                    <mxGeometry x="80" y="920" width="80" height="40" as="geometry"/>
                </mxCell>
                <mxCell id="39" value="" style="rounded=1;whiteSpace=wrap;html=1;strokeWidth=2;fillColor=#f5f5f5;fontColor=#333333;strokeColor=#666666;" vertex="1" parent="1">
                    <mxGeometry x="80" y="960" width="80" height="40" as="geometry"/>
                </mxCell>
                <mxCell id="41" value="" style="rounded=1;whiteSpace=wrap;html=1;fillColor=#f5f5f5;strokeColor=#666666;fontColor=#333333;fillStyle=auto;strokeWidth=2;" vertex="1" parent="1">
                    <mxGeometry x="80" y="720" width="80" height="40" as="geometry"/>
                </mxCell>
                <mxCell id="42" value="" style="rounded=1;whiteSpace=wrap;html=1;glass=0;shadow=0;fillColor=#F50000;strokeColor=#666666;strokeWidth=2;fontColor=#333333;" vertex="1" parent="1">
                    <mxGeometry x="80" y="680" width="80" height="40" as="geometry"/>
                </mxCell>
                <mxCell id="45" value="" style="endArrow=classic;html=1;" edge="1" parent="1">
                    <mxGeometry width="50" height="50" relative="1" as="geometry">
                        <mxPoint x="200" y="681" as="sourcePoint"/>
                        <mxPoint x="160" y="681" as="targetPoint"/>
                    </mxGeometry>
                </mxCell>
                <mxCell id="46" value="&lt;font&gt;char&lt;/font&gt;" style="text;strokeColor=none;align=center;fillColor=none;html=1;verticalAlign=middle;whiteSpace=wrap;rounded=0;shadow=0;glass=0;sketch=0;fillStyle=auto;fontFamily=Comic Sans MS;" vertex="1" parent="1">
                    <mxGeometry x="188" y="664" width="60" height="30" as="geometry"/>
                </mxCell>
                <mxCell id="51" value="" style="endArrow=classic;html=1;" edge="1" parent="1">
                    <mxGeometry width="50" height="50" relative="1" as="geometry">
                        <mxPoint x="197" y="999" as="sourcePoint"/>
                        <mxPoint x="157" y="999" as="targetPoint"/>
                    </mxGeometry>
                </mxCell>
                <mxCell id="52" value="S3" style="text;strokeColor=none;align=center;fillColor=none;html=1;verticalAlign=middle;whiteSpace=wrap;rounded=0;shadow=0;glass=0;sketch=0;fillStyle=auto;fontFamily=Comic Sans MS;" vertex="1" parent="1">
                    <mxGeometry x="184" y="983" width="60" height="30" as="geometry"/>
                </mxCell>
                <mxCell id="58" value="" style="rounded=1;whiteSpace=wrap;html=1;fillColor=#FFFF00;strokeColor=#666666;fontColor=#333333;strokeWidth=2;" vertex="1" parent="1">
                    <mxGeometry x="80" y="1000" width="80" height="40" as="geometry"/>
                </mxCell>
                <mxCell id="59" value="" style="rounded=1;whiteSpace=wrap;html=1;fillColor=#FFFF00;strokeColor=#666666;fontColor=#333333;strokeWidth=2;" vertex="1" parent="1">
                    <mxGeometry x="80" y="1040" width="80" height="40" as="geometry"/>
                </mxCell>
                <mxCell id="60" value="" style="rounded=1;whiteSpace=wrap;html=1;fillColor=#FFFF00;strokeColor=#666666;fontColor=#333333;strokeWidth=2;" vertex="1" parent="1">
                    <mxGeometry x="80" y="1080" width="80" height="40" as="geometry"/>
                </mxCell>
                <mxCell id="61" value="" style="rounded=1;whiteSpace=wrap;html=1;fillColor=#FFFF00;strokeColor=#666666;fontColor=#333333;strokeWidth=2;" vertex="1" parent="1">
                    <mxGeometry x="80" y="1120" width="80" height="40" as="geometry"/>
                </mxCell>
                <mxCell id="62" value="" style="rounded=1;whiteSpace=wrap;html=1;fillColor=#FFFF00;strokeColor=#666666;fontColor=#333333;strokeWidth=2;" vertex="1" parent="1">
                    <mxGeometry x="80" y="1160" width="80" height="40" as="geometry"/>
                </mxCell>
                <mxCell id="63" value="" style="rounded=1;whiteSpace=wrap;html=1;fillColor=#FFFF00;strokeColor=#666666;fontColor=#333333;strokeWidth=2;" vertex="1" parent="1">
                    <mxGeometry x="80" y="1200" width="80" height="40" as="geometry"/>
                </mxCell>
                <mxCell id="64" value="" style="rounded=1;whiteSpace=wrap;html=1;fillColor=#FFFF00;strokeColor=#666666;fontColor=#333333;strokeWidth=2;" vertex="1" parent="1">
                    <mxGeometry x="80" y="1240" width="80" height="40" as="geometry"/>
                </mxCell>
                <mxCell id="65" value="" style="rounded=1;whiteSpace=wrap;html=1;fillColor=#FFFF00;strokeColor=#666666;fontColor=#333333;strokeWidth=2;" vertex="1" parent="1">
                    <mxGeometry x="80" y="1280" width="80" height="40" as="geometry"/>
                </mxCell>
                <mxCell id="66" value="" style="rounded=1;whiteSpace=wrap;html=1;fillColor=#FFFF00;strokeColor=#666666;fontColor=#333333;strokeWidth=2;" vertex="1" parent="1">
                    <mxGeometry x="280" y="760" width="80" height="40" as="geometry"/>
                </mxCell>
                <mxCell id="67" value="" style="rounded=1;whiteSpace=wrap;html=1;fillColor=#FFFF00;strokeColor=#666666;fontColor=#333333;strokeWidth=2;" vertex="1" parent="1">
                    <mxGeometry x="280" y="800" width="80" height="40" as="geometry"/>
                </mxCell>
                <mxCell id="68" value="" style="rounded=1;whiteSpace=wrap;html=1;fillColor=#FFFF00;strokeColor=#666666;fontColor=#333333;strokeWidth=2;" vertex="1" parent="1">
                    <mxGeometry x="280" y="840" width="80" height="40" as="geometry"/>
                </mxCell>
                <mxCell id="69" value="" style="rounded=1;whiteSpace=wrap;html=1;fillColor=#FFFF00;strokeColor=#666666;fontColor=#333333;" vertex="1" parent="1">
                    <mxGeometry x="280" y="880" width="80" height="40" as="geometry"/>
                </mxCell>
                <mxCell id="70" value="" style="rounded=1;whiteSpace=wrap;html=1;fillColor=#FFFF00;strokeColor=#666666;fontColor=#333333;strokeWidth=2;" vertex="1" parent="1">
                    <mxGeometry x="280" y="920" width="80" height="40" as="geometry"/>
                </mxCell>
                <mxCell id="71" value="" style="rounded=1;whiteSpace=wrap;html=1;fillColor=#FFFF00;strokeColor=#666666;fontColor=#333333;strokeWidth=2;" vertex="1" parent="1">
                    <mxGeometry x="280" y="960" width="80" height="40" as="geometry"/>
                </mxCell>
                <mxCell id="72" value="" style="rounded=1;whiteSpace=wrap;html=1;fillColor=#FFFF00;strokeColor=#666666;fontColor=#333333;fillStyle=auto;strokeWidth=2;" vertex="1" parent="1">
                    <mxGeometry x="280" y="720" width="80" height="40" as="geometry"/>
                </mxCell>
                <mxCell id="73" value="" style="rounded=1;whiteSpace=wrap;html=1;glass=0;shadow=0;fillColor=#FFFF00;strokeColor=#666666;strokeWidth=2;fontColor=#333333;" vertex="1" parent="1">
                    <mxGeometry x="280" y="680" width="80" height="40" as="geometry"/>
                </mxCell>
                <mxCell id="74" value="" style="endArrow=classic;html=1;" edge="1" parent="1">
                    <mxGeometry width="50" height="50" relative="1" as="geometry">
                        <mxPoint x="400" y="997" as="sourcePoint"/>
                        <mxPoint x="360" y="997" as="targetPoint"/>
                    </mxGeometry>
                </mxCell>
                <mxCell id="75" value="double" style="text;strokeColor=none;align=center;fillColor=none;html=1;verticalAlign=middle;whiteSpace=wrap;rounded=0;shadow=0;glass=0;sketch=0;fillStyle=auto;fontFamily=Comic Sans MS;" vertex="1" parent="1">
                    <mxGeometry x="394" y="981" width="60" height="30" as="geometry"/>
                </mxCell>
                <mxCell id="80" value="" style="rounded=1;whiteSpace=wrap;html=1;fillColor=#0000FF;strokeColor=#666666;fontColor=#333333;strokeWidth=2;" vertex="1" parent="1">
                    <mxGeometry x="280" y="1000" width="80" height="40" as="geometry"/>
                </mxCell>
                <mxCell id="81" value="" style="rounded=1;whiteSpace=wrap;html=1;fillColor=#0000FF;strokeColor=#666666;fontColor=#333333;strokeWidth=2;" vertex="1" parent="1">
                    <mxGeometry x="280" y="1040" width="80" height="40" as="geometry"/>
                </mxCell>
                <mxCell id="82" value="" style="rounded=1;whiteSpace=wrap;html=1;fillColor=#0000FF;strokeColor=#666666;fontColor=#333333;strokeWidth=2;" vertex="1" parent="1">
                    <mxGeometry x="280" y="1080" width="80" height="40" as="geometry"/>
                </mxCell>
                <mxCell id="83" value="" style="rounded=1;whiteSpace=wrap;html=1;fillColor=#0000FF;strokeColor=#666666;fontColor=#333333;strokeWidth=2;" vertex="1" parent="1">
                    <mxGeometry x="280" y="1120" width="80" height="40" as="geometry"/>
                </mxCell>
                <mxCell id="84" value="" style="rounded=1;whiteSpace=wrap;html=1;fillColor=#0000FF;strokeColor=#666666;fontColor=#333333;strokeWidth=2;" vertex="1" parent="1">
                    <mxGeometry x="280" y="1160" width="80" height="40" as="geometry"/>
                </mxCell>
                <mxCell id="85" value="" style="rounded=1;whiteSpace=wrap;html=1;fillColor=#0000FF;strokeColor=#666666;fontColor=#333333;strokeWidth=2;" vertex="1" parent="1">
                    <mxGeometry x="280" y="1200" width="80" height="40" as="geometry"/>
                </mxCell>
                <mxCell id="86" value="" style="rounded=1;whiteSpace=wrap;html=1;fillColor=#0000FF;strokeColor=#666666;fontColor=#333333;strokeWidth=2;" vertex="1" parent="1">
                    <mxGeometry x="280" y="1240" width="80" height="40" as="geometry"/>
                </mxCell>
                <mxCell id="87" value="" style="rounded=1;whiteSpace=wrap;html=1;fillColor=#0000FF;strokeColor=#666666;fontColor=#333333;strokeWidth=2;" vertex="1" parent="1">
                    <mxGeometry x="280" y="1280" width="80" height="40" as="geometry"/>
                </mxCell>
            </root>
        </mxGraphModel>
    </diagram>
</mxfile>